<?xml version="1.0" encoding="UTF-8" standalone="no"?>
<svg
   xmlns:dc="http://purl.org/dc/elements/1.1/"
   xmlns:cc="http://creativecommons.org/ns#"
   xmlns:rdf="http://www.w3.org/1999/02/22-rdf-syntax-ns#"
   xmlns:svg="http://www.w3.org/2000/svg"
   xmlns="http://www.w3.org/2000/svg"
   xmlns:sodipodi="http://sodipodi.sourceforge.net/DTD/sodipodi-0.dtd"
   xmlns:inkscape="http://www.inkscape.org/namespaces/inkscape"
   version="1.1"
   x="0px"
   y="0px"
   viewBox="0 0 101 101"
   enable-background="new 0 0 100 100"
   xml:space="preserve"
   id="svg2"
   inkscape:version="0.91 r13725"
   sodipodi:docname="casting.svg"
   width="101"
   height="101"><metadata
     id="metadata16"><rdf:RDF><cc:Work
         rdf:about=""><dc:format>image/svg+xml</dc:format><dc:type
           rdf:resource="http://purl.org/dc/dcmitype/StillImage" /><dc:title></dc:title></cc:Work></rdf:RDF></metadata><defs
     id="defs14" /><sodipodi:namedview
     pagecolor="#ffffff"
     bordercolor="#666666"
     borderopacity="1"
     objecttolerance="10"
     gridtolerance="10"
     guidetolerance="10"
     inkscape:pageopacity="0"
     inkscape:pageshadow="2"
     inkscape:window-width="1065"
     inkscape:window-height="735"
     id="namedview12"
     showgrid="false"
     fit-margin-top="0.5"
     fit-margin-left="0.5"
     fit-margin-bottom="0.5"
     fit-margin-right="0.5"
     inkscape:zoom="2.36"
     inkscape:cx="-2.8898305"
     inkscape:cy="50.5"
     inkscape:window-x="419"
     inkscape:window-y="109"
     inkscape:window-maximized="0"
     inkscape:current-layer="svg2" /><g
     id="g4"
     transform="translate(0.5,0.5)"><path
       d="m 36.993,58.738 c 0,0 0.105,0 0.303,0 -0.102,0 -0.202,-0.014 -0.303,-0.025 0,0.007 0,0.018 0,0.025 z"
       id="path6"
       inkscape:connector-curvature="0" /><path
       d="m 39,78.5 c 0,-8.285 -0.336,-17.618 -5,-19.75 4.443,0 2.381,-10.68 2.964,-25.008 -2.626,0.272 -6.196,1.453 -10.801,7.131 0.004,0.027 -2.354,3.548 -2.493,6.453 C 23.065,60.043 28,60.755 28,76.547 28,101.547 3,91 0,100 l 100,0 C 93,90 39,108.595 39,78.5 Z M 30.905,43.986 c -1.569,2.246 -4.031,3.691 -3.095,-0.197 0.937,-3.89 4.315,-4.633 4.315,-4.633 0,0 -0.212,3.387 -1.22,4.83 z"
       id="path8"
       inkscape:connector-curvature="0" /><path
       d="M 29.488,31.094 C 29.486,30.571 29.483,30.048 29.483,29.5 29.483,5 32,5 36.848,5 41,5 42.517,8 42.517,29.5 c 0,9.002 -0.628,26.535 -1.619,29.133 0.064,0.112 0.12,0.233 0.182,0.348 C 42.014,58.999 42.986,59 44,59 60.292,59 72.5,45.792 72.5,29.5 72.5,13.208 60.292,0 44,0 30.5,0 25.5,0 25.5,29.5 c 0,1.635 0.023,3.164 0.063,4.623 1.293,-1.22 2.597,-2.225 3.925,-3.029 z"
       id="path10"
       inkscape:connector-curvature="0" /></g></svg>