<svg xmlns="http://www.w3.org/2000/svg" xmlns:xlink="http://www.w3.org/1999/xlink" version="1.1" x="0px" y="0px" viewBox="0 0 100 100" enable-background="new 0 0 100 100" xml:space="preserve">
  <path d="M5 89 H 95 V 95 H 5 L 5 89"/>
  <path d="M 54,56 54,38 26.115,38 25,38 25,56 25,86 75,86 75,56 z"/><path d="M 69,9 69,5 51,5 51,9 5,9 5,15 51,15 51,19 57,29 57,39.001 63,29 69,19 69,15 95,15 95,9 z"/><path d="M 63,53 63,42.998 57,53 z"/><path d="M 57,42.89 57,49.112 63,39.111 63,32.888 z"/></svg>
