<?xml version="1.0" encoding="UTF-8" standalone="no"?>
<svg
   xmlns:dc="http://purl.org/dc/elements/1.1/"
   xmlns:cc="http://creativecommons.org/ns#"
   xmlns:rdf="http://www.w3.org/1999/02/22-rdf-syntax-ns#"
   xmlns:svg="http://www.w3.org/2000/svg"
   xmlns="http://www.w3.org/2000/svg"
   xmlns:sodipodi="http://sodipodi.sourceforge.net/DTD/sodipodi-0.dtd"
   xmlns:inkscape="http://www.inkscape.org/namespaces/inkscape"
   version="1.1"
   x="0px"
   y="0px"
   viewBox="0 0 164 205"
   enable-background="new 0 0 164 164"
   xml:space="preserve"
   id="svg2"
   inkscape:version="0.91 r13725"
   sodipodi:docname="noun_997804_cc.svg"><metadata
     id="metadata14"><rdf:RDF><cc:Work
         rdf:about=""><dc:format>image/svg+xml</dc:format><dc:type
           rdf:resource="http://purl.org/dc/dcmitype/StillImage" /></cc:Work></rdf:RDF></metadata><defs
     id="defs12" /><sodipodi:namedview
     pagecolor="#ffffff"
     bordercolor="#666666"
     borderopacity="1"
     objecttolerance="10"
     gridtolerance="10"
     guidetolerance="10"
     inkscape:pageopacity="0"
     inkscape:pageshadow="2"
     inkscape:window-width="640"
     inkscape:window-height="480"
     id="namedview10"
     showgrid="false"
     inkscape:zoom="1.1512195"
     inkscape:cx="82"
     inkscape:cy="102.5"
     inkscape:window-x="0"
     inkscape:window-y="0"
     inkscape:window-maximized="0"
     inkscape:current-layer="svg2" /><path
     fill-rule="evenodd"
     clip-rule="evenodd"
     d="M8.872,28.168h24.511c4.879,0,8.872,3.993,8.872,8.873v99.11H0v-99.11  C0,32.162,3.993,28.168,8.872,28.168L8.872,28.168z M18.486,119.194v-5.777c0-1.22,0.998-2.218,2.218-2.218h0.845  c1.221,0,2.218,0.998,2.218,2.218v5.731c2.386-1.041,4.053-3.42,4.053-6.188c0-3.727-3.021-6.749-6.749-6.749  c-3.727,0-6.748,3.022-6.748,6.749C14.324,115.771,16.042,118.18,18.486,119.194L18.486,119.194z M32.747,112.952  c0-7.353-5.896-11.223-11.748-11.169c-5.767,0.054-11.493,3.924-11.493,11.169c0,7.489,6.021,11.305,11.933,11.168  C27.142,123.99,32.747,120.17,32.747,112.952L32.747,112.952z M54.313,114.363V36.374H163.68v77.989h-46.288v11.764h9.071  c1.489,0,2.706,1.217,2.706,2.706v4.612c0,1.489-1.217,2.706-2.706,2.706H91.529c-1.489,0-2.706-1.217-2.706-2.706v-4.612  c0-1.489,1.217-2.706,2.706-2.706h9.071v-11.764H54.313L54.313,114.363z M64.438,100.486h89.117V45.812H64.438V100.486  L64.438,100.486z M5.869,44.366v19.718h30.516V44.366H5.869z"
     id="path4" /></svg>