<svg xmlns="http://www.w3.org/2000/svg" xmlns:xlink="http://www.w3.org/1999/xlink" version="1.1" x="0px" y="0px" viewBox="0 0 30 37.5" xml:space="preserve"><g transform="translate(-510 -320)"><g xmlns="http://www.w3.org/2000/svg" xmlns:xlink="http://www.w3.org/1999/xlink"><path d="M533,347c-1.657,0-3-1.344-3-3c0-1.656,1.343-3,3-3c1.305,0,2.403,0.838,2.816,2H539v-17l-5-5h-23    v3h9.414l2.3,2.3c0.392-0.186,0.824-0.3,1.286-0.3c1.657,0,3,1.344,3,3c0,1.656-1.343,3-3,3c-1.657,0-3-1.344-3-3    c0-0.463,0.113-0.895,0.3-1.286L519.586,326H511v4h3.414l2.3,2.3c0.392-0.186,0.824-0.3,1.286-0.3c1.657,0,3,1.344,3,3    c0,1.656-1.343,3-3,3c-1.657,0-3-1.344-3-3c0-0.463,0.113-0.895,0.3-1.286L513.586,332H511v17h4v-3.184    c-1.163-0.413-2-1.512-2-2.816c0-1.656,1.343-3,3-3c1.657,0,3,1.344,3,3c0,1.305-0.837,2.403-2,2.816V349h4v-3.414l11-11v-2.77    c-1.163-0.413-2-1.512-2-2.816c0-1.656,1.343-3,3-3c1.657,0,3,1.344,3,3c0,1.305-0.837,2.403-2,2.816v3.598l-11,11V349h16v-4    h-3.184C535.403,346.162,534.305,347,533,347z"/></g></g><text x="0" y="45" fill="#000000" font-size="5px" font-weight="bold" font-family="'Helvetica Neue', Helvetica, Arial-Unicode, Arial, Sans-serif">Created by Hea Poh Lin</text><text x="0" y="50" fill="#000000" font-size="5px" font-weight="bold" font-family="'Helvetica Neue', Helvetica, Arial-Unicode, Arial, Sans-serif">from the Noun Project</text></svg>