<?xml version="1.0" encoding="UTF-8" standalone="no"?>
<svg
   xmlns:dc="http://purl.org/dc/elements/1.1/"
   xmlns:cc="http://creativecommons.org/ns#"
   xmlns:rdf="http://www.w3.org/1999/02/22-rdf-syntax-ns#"
   xmlns:svg="http://www.w3.org/2000/svg"
   xmlns="http://www.w3.org/2000/svg"
   xmlns:sodipodi="http://sodipodi.sourceforge.net/DTD/sodipodi-0.dtd"
   xmlns:inkscape="http://www.inkscape.org/namespaces/inkscape"
   version="1.1"
   x="0px"
   y="0px"
   viewBox="0 0 100 125"
   enable-background="new 0 0 100 100"
   xml:space="preserve"
   id="svg2"
   inkscape:version="0.91 r13725"
   sodipodi:docname="material-data-archive.svg"><metadata
     id="metadata16"><rdf:RDF><cc:Work
         rdf:about=""><dc:format>image/svg+xml</dc:format><dc:type
           rdf:resource="http://purl.org/dc/dcmitype/StillImage" /></cc:Work></rdf:RDF></metadata><defs
     id="defs14" /><sodipodi:namedview
     pagecolor="#ffffff"
     bordercolor="#666666"
     borderopacity="1"
     objecttolerance="10"
     gridtolerance="10"
     guidetolerance="10"
     inkscape:pageopacity="0"
     inkscape:pageshadow="2"
     inkscape:window-width="1292"
     inkscape:window-height="843"
     id="namedview12"
     showgrid="false"
     inkscape:zoom="1.888"
     inkscape:cx="-16.737288"
     inkscape:cy="62.5"
     inkscape:window-x="0"
     inkscape:window-y="0"
     inkscape:window-maximized="0"
     inkscape:current-layer="svg2" /><path
     d="m 94.902,33.847 -45,-16.347 -44.998,16.347 0,11.326 5.472,1.988 -5.473,1.987 0,42.007 45,16.345 45,-16.345 0,-42.007 -5.472,-1.987 5.472,-1.988 0,-11.326 z m -45,-13.09 L 88.887,34.919 49.902,49.077 10.92,34.919 49.902,20.757 Z m -41.931,16.347 40.398,14.673 0,5.927 -40.398,-14.673 0,-5.927 z M 48.369,103.687 7.97,89.013 l 0,-36.608 40.399,14.674 0,36.608 z M 88.887,50.22 49.903,64.38 10.919,50.22 l 3.939,-1.431 35.044,12.728 35.045,-12.729 3.94,1.432 z"
     id="path4"
     inkscape:connector-curvature="0"
     style="fill:#000000" /><path
     fill="#000000"
     d="M35.693,56.021l-15.601-5.666c-1.693-0.615-3.066,0.256-3.066,1.946c0,1.69,1.373,3.559,3.066,4.175  l15.601,5.665c1.693,0.615,3.066-0.256,3.066-1.946S37.387,56.637,35.693,56.021z"
     id="path6" /></svg>