<?xml version="1.0" encoding="UTF-8" standalone="no"?>
<svg
   xmlns:dc="http://purl.org/dc/elements/1.1/"
   xmlns:cc="http://creativecommons.org/ns#"
   xmlns:rdf="http://www.w3.org/1999/02/22-rdf-syntax-ns#"
   xmlns:svg="http://www.w3.org/2000/svg"
   xmlns="http://www.w3.org/2000/svg"
   xmlns:sodipodi="http://sodipodi.sourceforge.net/DTD/sodipodi-0.dtd"
   xmlns:inkscape="http://www.inkscape.org/namespaces/inkscape"
   version="1.1"
   x="0px"
   y="0px"
   viewBox="0 0 90.000999 43.617001"
   enable-background="new 0 0 100 100"
   xml:space="preserve"
   id="svg2"
   inkscape:version="0.91 r13725"
   sodipodi:docname="metalworking.svg"
   width="90.000999"
   height="43.617001"><metadata
     id="metadata14"><rdf:RDF><cc:Work
         rdf:about=""><dc:format>image/svg+xml</dc:format><dc:type
           rdf:resource="http://purl.org/dc/dcmitype/StillImage" /><dc:title></dc:title></cc:Work></rdf:RDF></metadata><defs
     id="defs12" /><sodipodi:namedview
     pagecolor="#ffffff"
     bordercolor="#666666"
     borderopacity="1"
     objecttolerance="10"
     gridtolerance="10"
     guidetolerance="10"
     inkscape:pageopacity="0"
     inkscape:pageshadow="2"
     inkscape:window-width="1108"
     inkscape:window-height="718"
     id="namedview10"
     showgrid="false"
     inkscape:zoom="1.888"
     inkscape:cx="-21.736788"
     inkscape:cy="21.8085"
     inkscape:window-x="0"
     inkscape:window-y="0"
     inkscape:window-maximized="0"
     inkscape:current-layer="svg2"
     fit-margin-top="0"
     fit-margin-left="0"
     fit-margin-right="0"
     fit-margin-bottom="0" /><path
     d="M 88.847,0 35.888,0 c -0.23,0 -0.435,0.078 -0.618,0.188 l -0.081,1.853 27.782,0 -27.89,2.577 -0.107,2.549 -1.343,-4.294 -4.268,0 -0.241,11.648 -1.744,-11.648 -0.215,0 -21.553,0 -5.61,0 C 0.138,3.718 0.188,4.56 0.59,5.369 1.194,6.584 2.1,7.74 3.248,8.858 c 1.146,1.117 2.531,2.201 4.16,3.193 1.593,0.973 3.427,1.856 5.422,2.685 5.209,1.909 11.484,3.033 18.279,3.033 0.36,0 0.716,-0.047 1.074,-0.054 2.324,0.382 4.309,1.154 5.745,2.282 1.504,1.184 2.407,2.769 2.335,4.857 -0.18,5.193 -6.903,12.256 -12.911,12.32 -0.063,0.002 -0.125,-0.025 -0.188,-0.026 l 0,6.469 9.046,0 c 3.279,-2.938 8.437,-4.831 14.28,-4.831 5.844,0 11.027,1.893 14.307,4.831 l 9.583,0 0,-4.938 C 65.832,36.375 59.831,30.955 59.831,24.614 c 0,-1.999 0.633,-3.909 1.718,-5.664 2.863,-4.624 9.082,-8.146 16.75,-9.26 l 7.435,0 C 86.062,9.412 86.487,9.143 86.781,8.858 87.928,7.74 88.835,6.584 89.438,5.369 89.8,4.64 89.853,3.871 90.001,3.114 l 0,-1.933 C 90,0.528 89.5,0 88.847,0 Z M 63.83,36.505 c -2.288,-4.39 -7.381,-7.437 -13.287,-7.437 -6.453,0 -11.882,3.647 -13.797,8.697 0.568,-6.115 6.451,-10.925 13.636,-10.925 6.691,0.001 12.254,4.154 13.448,9.665 z"
     id="path4"
     inkscape:connector-curvature="0" /></svg>