<svg xmlns="http://www.w3.org/2000/svg" xmlns:xlink="http://www.w3.org/1999/xlink" version="1.1" x="0px" y="0px" viewBox="0 0 100 100" enable-background="new 0 0 100 100" xml:space="preserve"><path d="M8.959,28.656h21.177c0.501,0,0.834-0.333,0.834-0.834v-2.334c0-0.5,0.333-0.834,0.834-0.834h45.021  c0.5,0,0.834,0.334,0.834,0.834v2.334c0,0.501,0.333,0.834,0.834,0.834h15.674c0.5,0,0.834,0.334,0.834,0.834v17.008  c0,0.5-0.334,0.834-0.834,0.834c-13.174,0.167-16.508,3.836-16.508,11.172c0,7.504,1.334,9.172,7.17,9.338  c0.5,0,0.834,0.334,0.834,0.834v5.836c0,0.5-0.334,0.834-0.834,0.834H31.804c-0.501,0-0.834-0.334-0.834-0.834v-5.836  c0-0.5,0.333-0.834,0.834-0.834h1.334c4.835,0,6.003-1.834,6.003-9.338c0-11.506-28.681-12.339-33.517-25.846  C4.29,29.49,4.957,28.656,8.959,28.656z"/></svg>
