<svg xmlns="http://www.w3.org/2000/svg" xmlns:xlink="http://www.w3.org/1999/xlink" version="1.1" x="0px" y="0px" viewBox="0 0 25 32.5" style="enable-background:new 0 0 25 26;" xml:space="preserve"><g><rect x="12" y="12" width="1" height="14"/><rect x="12" width="1" height="4"/><path d="M11,5H9C7.895,5,7,5.896,7,7v2c0,1.104,0.895,2,2,2h2h3h2c1.104,0,2-0.896,2-2V7c0-1.104-0.896-2-2-2h-2H11z M16,7v1H9V7   H16z"/><rect y="5" width="5" height="1"/><rect x="2" y="9" width="3" height="1"/><rect y="13" width="5" height="1"/><rect y="21" width="5" height="1"/><rect x="2" y="17" width="3" height="1"/><rect x="20" y="5" width="5" height="1"/><rect x="20" y="9" width="3" height="1"/><rect x="20" y="13" width="5" height="1"/><rect x="20" y="21" width="5" height="1"/><rect x="20" y="17" width="3" height="1"/></g><text x="0" y="41" fill="#000000" font-size="5px" font-weight="bold" font-family="'Helvetica Neue', Helvetica, Arial-Unicode, Arial, Sans-serif">Created by Hea Poh Lin</text><text x="0" y="46" fill="#000000" font-size="5px" font-weight="bold" font-family="'Helvetica Neue', Helvetica, Arial-Unicode, Arial, Sans-serif">from the Noun Project</text></svg>