<svg xmlns="http://www.w3.org/2000/svg" xmlns:xlink="http://www.w3.org/1999/xlink" version="1.1" x="0px" y="0px" viewBox="0 0 100 100" enable-background="new 0 0 100 100" xml:space="preserve"><g><path fill="#000000" d="M92.2,51.1c-1.4,0-2.7,0.4-3.9,1.1l-12.8,7.4v-3.2c0-6.8-5.6-12.4-12.4-12.4H12.4C5.6,43.9,0,49.5,0,56.3   v27.6c0,6.8,5.6,12.4,12.4,12.4h50.7c6.8,0,12.4-5.6,12.4-12.4v-3.2l12.8,7.4c1.2,0.7,2.5,1.1,3.9,1.1c4.3,0,7.8-3.5,7.8-7.8V58.9   C100,54.6,96.5,51.1,92.2,51.1z M67.1,83.9c0,2.2-1.8,4-4,4H12.4c-2.2,0-4-1.8-4-4V56.3c0-2.2,1.8-4,4-4h50.7c2.2,0,4,1.8,4,4V83.9   z"/><path fill="#000000" d="M18,40.3c7.6,0,13.8-6.2,13.8-13.8S25.7,12.6,18,12.6S4.2,18.8,4.2,26.4S10.4,40.3,18,40.3z"/><path fill="#000000" d="M53,40.3c10.1,0,18.3-8.2,18.3-18.3S63.1,3.7,53,3.7S34.7,11.9,34.7,22S42.9,40.3,53,40.3z"/></g></svg>
