<svg xmlns="http://www.w3.org/2000/svg" xmlns:xlink="http://www.w3.org/1999/xlink" version="1.1" x="0px" y="0px" viewBox="206 206 100 125" enable-background="new 206 206 100 100" xml:space="preserve"><g><path d="M256,216.071c-22.017,0-39.929,17.912-39.929,39.929c0,22.017,17.912,39.93,39.929,39.93   c22.017,0,39.93-17.913,39.93-39.93C295.93,233.983,278.017,216.071,256,216.071z M256,293.729   c-20.804,0-37.729-16.926-37.729-37.729c0-20.804,16.925-37.729,37.729-37.729c20.804,0,37.729,16.925,37.729,37.729   C293.73,276.803,276.804,293.729,256,293.729z"/><path d="M272.857,239.143c-0.429-0.429-1.126-0.429-1.556,0L256,254.444l-15.301-15.301c-0.43-0.429-1.126-0.429-1.556,0   c-0.429,0.43-0.429,1.126,0,1.556L254.445,256l-15.301,15.301c-0.429,0.43-0.429,1.126,0,1.556   c0.215,0.215,0.497,0.322,0.778,0.322c0.282,0,0.563-0.107,0.778-0.322L256,257.555l15.301,15.301   c0.215,0.215,0.497,0.322,0.778,0.322s0.563-0.107,0.777-0.322c0.43-0.43,0.43-1.126,0-1.556L257.556,256l15.301-15.301   C273.286,240.269,273.286,239.573,272.857,239.143z"/></g></svg>
