<?xml version="1.0" encoding="UTF-8" standalone="no"?>
<svg
   xmlns:dc="http://purl.org/dc/elements/1.1/"
   xmlns:cc="http://creativecommons.org/ns#"
   xmlns:rdf="http://www.w3.org/1999/02/22-rdf-syntax-ns#"
   xmlns:svg="http://www.w3.org/2000/svg"
   xmlns="http://www.w3.org/2000/svg"
   xmlns:sodipodi="http://sodipodi.sourceforge.net/DTD/sodipodi-0.dtd"
   xmlns:inkscape="http://www.inkscape.org/namespaces/inkscape"
   version="1.1"
   x="0px"
   y="0px"
   viewBox="0 0 100 125"
   enable-background="new 0 0 100 100"
   xml:space="preserve"
   id="svg2"
   inkscape:version="0.91 r13725"
   sodipodi:docname="woodworking.svg"><metadata
     id="metadata18"><rdf:RDF><cc:Work
         rdf:about=""><dc:format>image/svg+xml</dc:format><dc:type
           rdf:resource="http://purl.org/dc/dcmitype/StillImage" /></cc:Work></rdf:RDF></metadata><defs
     id="defs16" /><sodipodi:namedview
     pagecolor="#ffffff"
     bordercolor="#666666"
     borderopacity="1"
     objecttolerance="10"
     gridtolerance="10"
     guidetolerance="10"
     inkscape:pageopacity="0"
     inkscape:pageshadow="2"
     inkscape:window-width="1370"
     inkscape:window-height="938"
     id="namedview14"
     showgrid="false"
     inkscape:zoom="1.888"
     inkscape:cx="50"
     inkscape:cy="62.5"
     inkscape:window-x="0"
     inkscape:window-y="0"
     inkscape:window-maximized="0"
     inkscape:current-layer="svg2" /><g
     id="g4"><path
       d="M94.4,46.7c0.8-7.4-4.5,6.6-6.4-1.6c-1.3-5.3,4-5.6,2.7-13.8c-1.3-7.7-3.2,6.1-6.4,0.3c-2.7-4.5,1.6-7.2-2.9-13.8   c-4-6.4-0.3,5.3-7.4,1.1c-4.8-2.7-2.1-6.1-9-10.9c-6.4-4,2.1,6.1-4.2,4.5c-5-1.3-4-6.4-11.9-8c-7.4-1.3,6.4,4.5-1.9,6.4   c-5.6,1.1-6.1-4.2-14.3-3.2c-7.4,1.1,7.4,2.4,0.5,6.9c-4.5,2.7-6.6-2.4-14,1.6c-6.6,3.4,6.9,1.3,2.7,6.4c-3.2,4-7.2,0.8-12.2,7.4   c-4.5,5.8,6.9-4,5.3,4.2c-1.3,5.6-6.6,3.2-9,11.1c-2.1,7.2,6.4-3.7,6.4,2.9c0,5.3-4.8,5.6-4.5,13.8c0.3,7.4,2.9-7.4,6.6,0   c2.4,4.8-2.9,6.4,0.3,14c2.7,6.9,2.4-7.2,6.6-2.1c3.7,4-0.3,7.2,5.3,13.3c5,5.6-2.4-7.4,5.3-4.2c5,2.1,2.1,6.9,9.5,10.6   c6.4,3.4-2.9-6.4,3.7-5.8c5.3,0.3,4.8,5.6,13,5.6c7.4,0.3-7.4-3.4,0.5-6.4c5-2.1,6.1,3.4,14,0.8c7.2-2.1-6.6-3.2-1.6-6.9   c4.2-2.9,7.4,0.8,13.8-4.5c5.6-4.5-8.2,1.9-4-5.3c2.7-4.8,6.9-1.1,11.4-8c4.2-6.1-6.4,2.1-5.3-4.2C87.8,53.6,93.3,55,94.4,46.7z    M50.1,56.8c-10.1,0-10.1-14.8,0-14.8C60.2,42,60.2,57.1,50.1,56.8z"
       id="path6" /><path
       d="M50.1,44.8c-6.6,0-6.6,9.8,0,9.8C56.8,54.6,56.8,44.8,50.1,44.8z"
       id="path8" /></g></svg>