<?xml version="1.0" encoding="UTF-8" standalone="no"?>
<svg
   xmlns:dc="http://purl.org/dc/elements/1.1/"
   xmlns:cc="http://creativecommons.org/ns#"
   xmlns:rdf="http://www.w3.org/1999/02/22-rdf-syntax-ns#"
   xmlns:svg="http://www.w3.org/2000/svg"
   xmlns="http://www.w3.org/2000/svg"
   xmlns:sodipodi="http://sodipodi.sourceforge.net/DTD/sodipodi-0.dtd"
   xmlns:inkscape="http://www.inkscape.org/namespaces/inkscape"
   version="1.1"
   x="0px"
   y="0px"
   viewBox="0 0 163.67999 107.983"
   enable-background="new 0 0 164 164"
   xml:space="preserve"
   id="svg2"
   inkscape:version="0.91 r13725"
   sodipodi:docname="computer-software.svg"
   width="163.67999"
   height="107.983"><metadata
     id="metadata14"><rdf:RDF><cc:Work
         rdf:about=""><dc:format>image/svg+xml</dc:format><dc:type
           rdf:resource="http://purl.org/dc/dcmitype/StillImage" /><dc:title></dc:title></cc:Work></rdf:RDF></metadata><defs
     id="defs12" /><sodipodi:namedview
     pagecolor="#ffffff"
     bordercolor="#666666"
     borderopacity="1"
     objecttolerance="10"
     gridtolerance="10"
     guidetolerance="10"
     inkscape:pageopacity="0"
     inkscape:pageshadow="2"
     inkscape:window-width="1124"
     inkscape:window-height="748"
     id="namedview10"
     showgrid="false"
     inkscape:zoom="1.1512195"
     inkscape:cx="-27.449153"
     inkscape:cy="33.650999"
     inkscape:window-x="0"
     inkscape:window-y="0"
     inkscape:window-maximized="0"
     inkscape:current-layer="svg2"
     fit-margin-top="0"
     fit-margin-left="0"
     fit-margin-right="0"
     fit-margin-bottom="0" /><path
     d="m 8.872,0 24.511,0 c 4.879,0 8.872,3.993 8.872,8.873 l 0,99.11 -42.255,0 0,-99.11 C 0,3.994 3.993,0 8.872,0 l 0,0 z m 9.614,91.026 0,-5.777 c 0,-1.22 0.998,-2.218 2.218,-2.218 l 0.845,0 c 1.221,0 2.218,0.998 2.218,2.218 l 0,5.731 c 2.386,-1.041 4.053,-3.42 4.053,-6.188 0,-3.727 -3.021,-6.749 -6.749,-6.749 -3.727,0 -6.748,3.022 -6.748,6.749 10e-4,2.811 1.719,5.22 4.163,6.234 l 0,0 z m 14.261,-6.242 c 0,-7.353 -5.896,-11.223 -11.748,-11.169 -5.767,0.054 -11.493,3.924 -11.493,11.169 0,7.489 6.021,11.305 11.933,11.168 5.703,-0.13 11.308,-3.95 11.308,-11.168 l 0,0 z m 21.566,1.411 0,-77.989 109.367,0 0,77.989 -46.288,0 0,11.764 9.071,0 c 1.489,0 2.706,1.217 2.706,2.706 l 0,4.612 c 0,1.489 -1.217,2.706 -2.706,2.706 l -34.934,0 c -1.489,0 -2.706,-1.217 -2.706,-2.706 l 0,-4.612 c 0,-1.489 1.217,-2.706 2.706,-2.706 l 9.071,0 0,-11.764 -46.287,0 0,0 z m 10.125,-13.877 89.117,0 0,-54.674 -89.117,0 0,54.674 0,0 z m -58.569,-56.12 0,19.718 30.516,0 0,-19.718 -30.516,0 z"
     id="path4"
     inkscape:connector-curvature="0"
     style="clip-rule:evenodd;fill-rule:evenodd" /></svg>