<?xml version="1.0" encoding="UTF-8" standalone="no"?>
<svg
   xmlns:dc="http://purl.org/dc/elements/1.1/"
   xmlns:cc="http://creativecommons.org/ns#"
   xmlns:rdf="http://www.w3.org/1999/02/22-rdf-syntax-ns#"
   xmlns:svg="http://www.w3.org/2000/svg"
   xmlns="http://www.w3.org/2000/svg"
   xmlns:sodipodi="http://sodipodi.sourceforge.net/DTD/sodipodi-0.dtd"
   xmlns:inkscape="http://www.inkscape.org/namespaces/inkscape"
   version="1.1"
   x="0px"
   y="0px"
   viewBox="0 0 100 125"
   enable-background="new 0 0 100 100"
   xml:space="preserve"
   id="svg2"
   inkscape:version="0.91 r13725"
   sodipodi:docname="electronics.svg"><metadata
     id="metadata14"><rdf:RDF><cc:Work
         rdf:about=""><dc:format>image/svg+xml</dc:format><dc:type
           rdf:resource="http://purl.org/dc/dcmitype/StillImage" /></cc:Work></rdf:RDF></metadata><defs
     id="defs12" /><sodipodi:namedview
     pagecolor="#ffffff"
     bordercolor="#666666"
     borderopacity="1"
     objecttolerance="10"
     gridtolerance="10"
     guidetolerance="10"
     inkscape:pageopacity="0"
     inkscape:pageshadow="2"
     inkscape:window-width="1155"
     inkscape:window-height="718"
     id="namedview10"
     showgrid="false"
     inkscape:zoom="1.888"
     inkscape:cx="-16.737288"
     inkscape:cy="62.5"
     inkscape:window-x="0"
     inkscape:window-y="0"
     inkscape:window-maximized="0"
     inkscape:current-layer="svg2" /><path
     d="m 87.963081,22.7255 c 3.568,0 5.734,1.884 6.5,5.65 0.068,0.366 -0.016,0.667 -0.25,0.9 l -15.398,17.05 0,49.649 c 0,2.033 -0.533,3.584 -1.602,4.65 -1.1,1.1 -2.666,1.65 -4.699,1.65 l -60.7,0 c -2.0330001,0 -3.5840001,-0.551 -4.6500001,-1.65 -1.1,-1.066 -1.65,-2.617 -1.65,-4.65 l 0,-60.699 c 0,-2.034 0.551,-3.584 1.65,-4.65 1.066,-1.1 2.617,-1.65 4.6500001,-1.65 l 3.549,0 c 0.668,0 1,0.334 1,1 0,0.267 -0.082,0.5 -0.25,0.7 -0.199,0.2 -0.449,0.3 -0.75,0.3 l -3.549,0 c -1.5,0 -2.5840001,0.351 -3.2500001,1.051 -0.701,0.699 -1.051,1.783 -1.051,3.25 l 0,19.949 9.6500001,-0.199 0.35,0.05 c 1.768,0.6 2.768,1.933 3,4 l 0.1,15.25 c 0.533,0.2 0.984,0.517 1.35,0.95 0.768,0.833 1.15,1.883 1.15,3.149 0,1.233 -0.4,2.25 -1.199,3.05 -0.801,0.9 -1.834,1.351 -3.1,1.351 -1.135,0 -2.168,-0.434 -3.102,-1.3 -0.865,-0.867 -1.299,-1.9 -1.299,-3.101 0,-1.233 0.416,-2.3 1.25,-3.2 0.934,-0.8 1.916,-1.233 2.949,-1.3 l -0.1,-14.7 c -0.1,-1.1 -0.6,-1.833 -1.5,-2.199 l -9.5000001,0.199 0,31.601 25.1500001,0.05 c 3.232,-0.134 5.1,1.267 5.6,4.2 l 0,7.2 9.1,0 -0.1,-17.301 c 0.268,-2.199 -0.316,-3.533 -1.75,-4 l -9.75,-0.399 -0.25,-0.05 c -3,-0.801 -4.5,-2.417 -4.5,-4.851 l 0.449,-16.45 c -0.898,-0.199 -1.699,-0.649 -2.398,-1.35 -0.867,-0.9 -1.301,-2.017 -1.301,-3.35 0,-1.334 0.434,-2.45 1.301,-3.351 1,-0.899 2.148,-1.35 3.449,-1.35 1.301,0 2.434,0.433 3.4,1.3 0.9,0.934 1.35,2.066 1.35,3.4 0,1.333 -0.434,2.449 -1.301,3.35 -0.832,0.767 -1.666,1.217 -2.5,1.35 l -0.449,16.5 c 0,1.334 0.982,2.283 2.949,2.851 l 9.75,0.399 0.25,0.051 c 2.568,0.732 3.668,2.767 3.301,6.1 l 0.1,17.15 7.301,0 -0.5,-29.101 c 0,-1.866 -0.65,-3.184 -1.951,-3.95 l -7.35,0 -0.25,-0.05 c -3.033,-0.767 -4.4,-2.717 -4.1,-5.85 l 0,-2.75 c 0,-0.267 0.1,-0.5 0.301,-0.7 0.166,-0.2 0.398,-0.3 0.699,-0.3 0.268,0 0.5,0.1 0.699,0.3 0.201,0.2 0.301,0.434 0.301,0.7 l 0,2.8 -0.051,0.1 c -0.199,1.967 0.65,3.217 2.551,3.75 l 5.801,0 -38.102,-38.8 c -0.432,-0.434 -0.432,-0.899 0,-1.399 0.201,-0.2 0.451,-0.301 0.75,-0.301 0.268,0 0.5,0.101 0.701,0.301 l 38.049,38.75 c 0.168,0.199 0.25,0.433 0.25,0.699 0,0.301 -0.1,0.533 -0.299,0.7 l 0,0.05 0.25,0 0.449,0.101 0.35,0.2 c -0.467,-0.467 -0.482,-0.934 -0.049,-1.4 l 1.199,-1.3 -0.699,-0.7 c -0.168,-0.167 -0.268,-0.384 -0.301,-0.65 0,-0.267 0.084,-0.5 0.25,-0.699 l 2.201,-2.5 -0.5,-0.45 c -0.301,-0.3 -0.4,-0.65 -0.301,-1.05 -2.066,-0.601 -3.383,-2.051 -3.949,-4.351 l -0.051,-0.25 0,-8.25 c -0.699,-0.2 -1.383,-0.6 -2.051,-1.2 -1.033,-1.033 -1.549,-2.25 -1.549,-3.649 0,-1.4 0.5,-2.634 1.5,-3.7 0.967,-0.967 2.199,-1.45 3.699,-1.45 1.467,0 2.65,0.5 3.551,1.5 0.967,0.967 1.449,2.184 1.449,3.65 0,1.466 -0.482,2.666 -1.449,3.6 -0.768,0.934 -1.816,1.45 -3.15,1.55 l 0,7.851 c 0.4,1.433 1.217,2.35 2.449,2.75 l 1.201,0 18.15,-20.2 c -0.135,-2.434 -1.568,-3.65 -4.301,-3.65 l -28,0 0,19.45 c 0,0.267 -0.1,0.5 -0.301,0.7 -0.199,0.2 -0.432,0.3 -0.699,0.3 -0.301,0 -0.533,-0.1 -0.699,-0.3 -0.201,-0.2 -0.301,-0.434 -0.301,-0.7 l 0,-19.45 -8,0 0,6.75 -0.051,0.351 -0.398,1.05 c -0.135,0.267 -0.334,0.45 -0.602,0.55 -0.266,0.101 -0.516,0.083 -0.75,-0.05 -0.232,-0.1 -0.398,-0.283 -0.5,-0.55 -0.1,-0.233 -0.1,-0.483 0,-0.75 l 0.301,-0.75 0,-6.601 -8.5,0 c -0.666,0 -1,-0.333 -1,-1 0,-0.666 0.334,-1 1,-1 l 48.5,0 c 3.166,0 5.166,1.267 6,3.801 l 8.75,-9.7 c 0.17,-0.236 0.404,-0.353 0.703,-0.353 z m -10.85,22.55 15.301,-17 c -0.6,-2.268 -1.934,-3.45 -4,-3.551 l -29.051,32.301 0.5,0.399 0,0.05 3.4,3.2 13.801,-15.399 0.049,0 z m -0.299,11.55 -7.5,0 -5.25,5.899 c -0.168,0.233 -0.4,0.351 -0.701,0.351 -0.232,0 -0.467,-0.084 -0.699,-0.25 l -0.6,-0.55 -2.15,2.35 c -0.168,0.2 -0.383,0.316 -0.65,0.35 -0.267,0.034 -0.5,-0.033 -0.699,-0.199 l -0.75,-0.601 -1.201,1.3 c -0.299,0.334 -0.65,0.417 -1.049,0.25 1.732,1.167 2.6,2.983 2.6,5.45 l 0.5,29.101 9.949,0 -0.299,-29.2 c -0.102,-1.867 0.615,-3.517 2.148,-4.95 0.102,-0.1 0.301,-0.184 0.602,-0.25 l 5.75,-0.4 0,-8.651 z m 0,-2 0,-6.3 -5.65,6.3 5.65,0 z m -6.5,16.2 0.299,29.25 1.9,0 c 1.5,0 2.6,-0.334 3.301,-1 0.666,-0.7 1,-1.801 1,-3.301 l 0,-28.5 -5.25,0.4 c -0.867,0.901 -1.283,1.951 -1.25,3.151 z m -18.9,-31.95 c 0,0.866 0.299,1.6 0.9,2.2 0.566,0.533 1.148,0.816 1.75,0.85 l 0.25,0.05 0.1,0.05 0.199,0 c 0.867,0 1.551,-0.3 2.051,-0.899 l 0.1,-0.05 c 0.566,-0.567 0.85,-1.301 0.85,-2.2 0,-0.867 -0.299,-1.634 -0.9,-2.3 -0.467,-0.567 -1.166,-0.851 -2.1,-0.851 -0.934,0 -1.684,0.283 -2.25,0.851 -0.634,0.699 -0.95,1.465 -0.95,2.299 z m -23.6,3.15 c -0.168,0.167 -0.385,0.25 -0.65,0.25 l -4.1,-0.1 c -0.168,1.033 -0.568,1.917 -1.201,2.65 -0.934,0.933 -2.049,1.399 -3.35,1.399 -1.334,0 -2.467,-0.434 -3.4,-1.3 -0.9,-0.934 -1.35,-2.1 -1.35,-3.5 0,-1.267 0.434,-2.367 1.301,-3.3 0.932,-0.934 2.082,-1.4 3.449,-1.4 1.268,0 2.367,0.467 3.301,1.4 0.6,0.633 0.982,1.316 1.148,2.05 l 4.201,0.1 c 0.266,0 0.5,0.101 0.699,0.301 0.201,0.232 0.283,0.482 0.25,0.75 0.001,0.267 -0.098,0.5 -0.298,0.7 z m 4.7,7.6 c -0.801,0 -1.482,0.267 -2.051,0.8 -0.467,0.533 -0.699,1.167 -0.699,1.9 0,0.732 0.25,1.399 0.75,2 0.533,0.533 1.199,0.8 2,0.8 0.801,0 1.467,-0.283 2,-0.851 0.5,-0.533 0.75,-1.183 0.75,-1.949 0,-0.733 -0.25,-1.384 -0.75,-1.95 -0.534,-0.5 -1.2,-0.75 -2,-0.75 z m 28.099,11.05 -1.35,-1.25 -1.5,1.75 1.301,1.2 1.549,-1.7 z m -42.099,-21.95 c -0.834,0 -1.5,0.267 -2,0.8 -0.5,0.467 -0.75,1.101 -0.75,1.9 0,0.799 0.25,1.5 0.75,2.1 0.533,0.467 1.199,0.7 2,0.7 0.732,0 1.35,-0.25 1.85,-0.75 0.467,-0.5 0.701,-1.184 0.701,-2.05 l 0,-0.3 c 0,-0.601 -0.234,-1.134 -0.701,-1.601 -0.501,-0.533 -1.118,-0.799 -1.85,-0.799 z m 0.949,37.15 -0.648,-0.15 c -0.602,0 -1.184,0.25 -1.75,0.75 -0.434,0.434 -0.65,1.017 -0.65,1.75 0,0.634 0.232,1.184 0.699,1.65 0.5,0.5 1.066,0.75 1.701,0.75 0.666,0 1.217,-0.233 1.648,-0.7 0.434,-0.467 0.65,-1.033 0.65,-1.7 0,-0.767 -0.217,-1.366 -0.65,-1.8 -0.266,-0.3 -0.582,-0.483 -0.949,-0.55 l -0.051,0 z m -10.8990001,23.2 c 0.666,0.666 1.7500001,1 3.2500001,1 l 24.449,0 0,-6.95 c -0.301,-1.7 -1.5,-2.517 -3.6,-2.45 l -25.1500001,-0.05 0,5.149 c 10e-4,1.501 0.35,2.601 1.051,3.301 z"
     id="path4"
     inkscape:connector-curvature="0"
     style="clip-rule:evenodd;fill-rule:evenodd" /></svg>