<?xml version="1.0" encoding="UTF-8" standalone="no"?>
<svg
   xmlns:dc="http://purl.org/dc/elements/1.1/"
   xmlns:cc="http://creativecommons.org/ns#"
   xmlns:rdf="http://www.w3.org/1999/02/22-rdf-syntax-ns#"
   xmlns:svg="http://www.w3.org/2000/svg"
   xmlns="http://www.w3.org/2000/svg"
   xmlns:sodipodi="http://sodipodi.sourceforge.net/DTD/sodipodi-0.dtd"
   xmlns:inkscape="http://www.inkscape.org/namespaces/inkscape"
   version="1.1"
   x="0px"
   y="0px"
   viewBox="0 0 504 630"
   enable-background="new 0 0 504 504"
   xml:space="preserve"
   id="svg2"
   inkscape:version="0.91 r13725"
   sodipodi:docname="robotics.svg"><metadata
     id="metadata102"><rdf:RDF><cc:Work
         rdf:about=""><dc:format>image/svg+xml</dc:format><dc:type
           rdf:resource="http://purl.org/dc/dcmitype/StillImage" /></cc:Work></rdf:RDF></metadata><defs
     id="defs100" /><sodipodi:namedview
     pagecolor="#ffffff"
     bordercolor="#666666"
     borderopacity="1"
     objecttolerance="10"
     gridtolerance="10"
     guidetolerance="10"
     inkscape:pageopacity="0"
     inkscape:pageshadow="2"
     inkscape:window-width="1212"
     inkscape:window-height="817"
     id="namedview98"
     showgrid="false"
     inkscape:zoom="5.9936508"
     inkscape:cx="22.884474"
     inkscape:cy="81.027626"
     inkscape:window-x="0"
     inkscape:window-y="0"
     inkscape:window-maximized="0"
     inkscape:current-layer="svg2" /><g
     id="g4"><g
       id="g6"><polygon
         points="486.795,273.835 475.334,311.887 472.864,306.779 476.113,270.619   "
         id="polygon8" /><polyline
         points="486.795,273.835 460.522,237.162 452.653,256.637 476.113,270.619   "
         id="polyline10" /></g><path
       d="M472.932,232.697c0,13.274-10.765,24.031-24.03,24.031h-17.982c-13.271,0-24.032-10.759-24.032-24.031v-14.685   c0-13.271,10.761-24.03,24.032-24.03h17.982c13.266,0,24.03,10.758,24.03,24.03V232.697z"
       id="path12" /><g
       id="g14"><polygon
         points="392.08,273.883 405.123,311.427 407.371,306.211 402.614,270.227   "
         id="polygon16" /><polyline
         points="392.08,273.883 416.796,236.147 425.468,255.273 402.614,270.227   "
         id="polyline18" /></g><path
       stroke="#FFFFFF"
       stroke-width="3"
       stroke-miterlimit="10"
       d="M454.716,197.878c-10.208,8.486-25.36,7.087-33.845-3.117   l-56.578-68.068c-8.484-10.206-7.086-25.359,3.122-33.841l8.646-7.188c10.201-8.482,25.36-7.084,33.839,3.119l56.582,68.069   c8.478,10.205,7.086,25.357-3.122,33.84L454.716,197.878z"
       fill="#000000"
       id="path20" /><g
       id="g22"><circle
         fill="#000000"
         cx="397.846"
         cy="119.511"
         r="19.879"
         id="circle24" /><path
         d="M411.974,119.51c0,7.805-6.324,14.132-14.133,14.132c-7.802,0-14.132-6.327-14.132-14.132    c0-7.804,6.328-14.132,14.132-14.132C405.651,105.378,411.974,111.706,411.974,119.51z"
         id="path26" /><circle
         fill="#000000"
         cx="397.846"
         cy="119.51"
         r="5.85"
         id="circle28" /></g><g
       id="g30"><path
         fill="#000000"
         d="M454.12,163.243c0,10.977-8.896,19.877-19.88,19.877c-10.979,0-19.877-8.9-19.877-19.877    c0-10.98,8.897-19.879,19.877-19.879C445.224,143.364,454.12,152.263,454.12,163.243z"
         id="path32" /><circle
         cx="434.24"
         cy="163.243"
         r="14.132"
         id="circle34" /><circle
         fill="#000000"
         cx="434.238"
         cy="163.243"
         r="5.852"
         id="circle36" /></g><path
       stroke="#FFFFFF"
       stroke-width="3"
       stroke-miterlimit="10"
       d="M388.918,79.043c6.3,11.682,4.931,24.643-3.055,28.947   l-183.126,98.77c-7.985,4.305-19.565-1.672-25.864-13.354l-14.576-27.022c-6.3-11.684-4.933-24.645,3.049-28.952l183.131-98.768   c7.978-4.306,19.564,1.672,25.861,13.354L388.918,79.043z"
       fill="#000000"
       id="path38" /><path
       stroke="#FFFFFF"
       stroke-width="5"
       stroke-miterlimit="10"
       d="M45.668,383.941l129.499-194.917c0,0,42.722-18.689,77.431,0   v194.917H45.668L45.668,383.941z"
       fill="#000000"
       id="path40" /><circle
       fill="#000000"
       cx="206.821"
       cy="227.358"
       r="32.326"
       id="circle42" /><circle
       cx="206.822"
       cy="227.357"
       r="22.981"
       id="circle44" /><path
       fill="#000000"
       d="M299.918,121.429c0,13.425-10.889,24.311-24.315,24.311c-13.423,0-24.308-10.885-24.308-24.311   c0-13.428,10.885-24.312,24.308-24.312C289.029,97.117,299.918,108.002,299.918,121.429z"
       id="path46" /><path
       d="M292.889,121.429c0,9.545-7.736,17.283-17.286,17.283c-9.542,0-17.283-7.737-17.283-17.283s7.741-17.284,17.283-17.284   C285.152,104.145,292.889,111.882,292.889,121.429z"
       id="path48" /><circle
       fill="#000000"
       cx="206.823"
       cy="156.406"
       r="24.311"
       id="circle50" /><circle
       cx="206.821"
       cy="156.406"
       r="17.282"
       id="circle52" /><circle
       fill="#000000"
       cx="206.822"
       cy="156.406"
       r="7.158"
       id="circle54" /><path
       fill="#000000"
       d="M282.765,122.713c0,3.955-3.204,7.158-7.163,7.158c-3.951,0-7.154-3.203-7.154-7.158   s3.203-7.158,7.154-7.158C279.561,115.555,282.765,118.758,282.765,122.713z"
       id="path56" /><g
       id="g58"><path
         fill="#000000"
         d="M372.357,79.836c0,13.426-10.886,24.309-24.317,24.309c-13.421,0-24.308-10.883-24.308-24.309    c0-13.429,10.887-24.313,24.308-24.313C361.47,55.522,372.357,66.407,372.357,79.836z"
         id="path60" /><path
         d="M365.321,79.836c0,9.545-7.73,17.281-17.281,17.281c-9.537,0-17.277-7.736-17.277-17.281    c0-9.547,7.742-17.285,17.277-17.285C357.591,62.552,365.321,70.289,365.321,79.836z"
         id="path62" /><path
         fill="#000000"
         d="M355.202,79.836c0,3.952-3.201,7.156-7.162,7.156c-3.95,0-7.152-3.204-7.152-7.156    c0-3.956,3.202-7.159,7.152-7.159C351.998,72.677,355.202,75.88,355.202,79.836z"
         id="path64" /></g><rect
       x="33.65"
       y="385.347"
       width="241.957"
       height="18.688"
       id="rect66" /><rect
       x="8.096"
       y="408.639"
       width="290.078"
       height="86.774"
       id="rect68" /><path
       fill="#000000"
       d="M225.129,336.411c0,17.399-10.759,31.508-24.029,31.508h-57.309c-13.273,0-24.029-14.108-24.029-31.508   v-15.754c0-17.396,10.756-31.506,24.029-31.506H201.1c13.271,0,24.029,14.109,24.029,31.506V336.411z"
       id="path70" /><rect
       x="170.159"
       y="328.534"
       width="6.507"
       height="34.378"
       id="rect72" /><rect
       x="183.841"
       y="340.886"
       width="5.698"
       height="22.026"
       id="rect74" /><rect
       x="199.665"
       y="348.392"
       width="3.537"
       height="14.521"
       id="rect76" /><rect
       x="131.108"
       y="296.517"
       width="36.546"
       height="21.526"
       id="rect78" /><circle
       cx="186.789"
       cy="306.286"
       r="6.953"
       id="circle80" /><circle
       cx="204.554"
       cy="323.264"
       r="4.025"
       id="circle82" /><rect
       x="136.116"
       y="326.533"
       width="23.278"
       height="34.375"
       id="rect84" /><circle
       fill="#000000"
       cx="147.755"
       cy="333.873"
       r="4.025"
       id="circle86" /><path
       fill="#000000"
       d="M151.78,353.65c0,2.226-1.803,4.025-4.026,4.025c-2.22,0-4.024-1.8-4.024-4.025   c0-2.225,1.804-4.023,4.024-4.023C149.978,349.627,151.78,351.426,151.78,353.65z"
       id="path88" /><circle
       fill="#000000"
       cx="440.323"
       cy="228.761"
       r="16.776"
       id="circle90" /><path
       d="M447.019,228.761c0,3.954-3.205,7.155-7.159,7.155s-7.163-3.203-7.163-7.155c0-3.956,3.209-7.16,7.163-7.16   S447.019,224.806,447.019,228.761z"
       id="path92" /></g></svg>