<?xml version="1.0" encoding="UTF-8" standalone="no"?>
<svg
   xmlns:dc="http://purl.org/dc/elements/1.1/"
   xmlns:cc="http://creativecommons.org/ns#"
   xmlns:rdf="http://www.w3.org/1999/02/22-rdf-syntax-ns#"
   xmlns:svg="http://www.w3.org/2000/svg"
   xmlns="http://www.w3.org/2000/svg"
   xmlns:sodipodi="http://sodipodi.sourceforge.net/DTD/sodipodi-0.dtd"
   xmlns:inkscape="http://www.inkscape.org/namespaces/inkscape"
   viewBox="0 0 59 75"
   version="1.1"
   x="0px"
   y="0px"
   id="svg2"
   inkscape:version="0.91 r13725"
   sodipodi:docname="noun_574564_cc.svg">
  <metadata
     id="metadata24">
    <rdf:RDF>
      <cc:Work
         rdf:about="">
        <dc:format>image/svg+xml</dc:format>
        <dc:type
           rdf:resource="http://purl.org/dc/dcmitype/StillImage" />
      </cc:Work>
    </rdf:RDF>
  </metadata>
  <defs
     id="defs22" />
  <sodipodi:namedview
     pagecolor="#ffffff"
     bordercolor="#666666"
     borderopacity="1"
     objecttolerance="10"
     gridtolerance="10"
     guidetolerance="10"
     inkscape:pageopacity="0"
     inkscape:pageshadow="2"
     inkscape:window-width="640"
     inkscape:window-height="480"
     id="namedview20"
     showgrid="false"
     inkscape:zoom="3.1466667"
     inkscape:cx="29.5"
     inkscape:cy="37.5"
     inkscape:window-x="0"
     inkscape:window-y="0"
     inkscape:window-maximized="0"
     inkscape:current-layer="svg2" />
  <title
     id="title4">47 -Sewing Thread- (sewing, machine, tailoring, knit, )</title>
  <desc
     id="desc6">Created with Sketch.</desc>
  <g
     stroke="none"
     stroke-width="1"
     fill="none"
     fill-rule="evenodd"
     id="g8">
    <g
       transform="translate(-826.000000, -882.000000)"
       fill="#000000"
       id="g10">
      <g
         transform="translate(826.000000, 882.000000)"
         id="g12">
        <path
           d="M56.7803,24.4629 L56.1103,25.1349 C56.0893,25.1559 56.0623,25.1709 56.0323,25.1649 L47.8843,24.6219 L35.1903,11.9279 L34.6743,3.7029 L35.3473,3.0299 L35.4883,3.0289 L56.7813,24.3219 L56.7803,24.4629 Z M41.7553,40.4749 L37.5003,36.9539 L37.5013,36.9529 L21.4773,23.6919 L21.4753,23.6939 L11.2983,15.2729 L13.2193,13.3519 L13.9263,14.0589 C14.1213,14.2539 14.3773,14.3519 14.6333,14.3519 C14.8883,14.3519 15.1443,14.2539 15.3403,14.0589 C15.7303,13.6679 15.7303,13.0349 15.3403,12.6449 L12.5113,9.8169 C12.1213,9.4259 11.4883,9.4259 11.0973,9.8169 C10.7073,10.2069 10.7073,10.8399 11.0973,11.2309 L11.8043,11.9379 L9.7503,13.9919 L8.9763,13.3519 C8.2243,12.5999 7.8103,11.5959 7.8103,10.5239 C7.8103,9.4509 8.2243,8.4469 8.9763,7.6949 C9.7283,6.9429 10.7323,6.5289 11.8043,6.5289 C12.8773,6.5289 13.8813,6.9429 14.5693,7.6259 L31.1423,27.6509 L38.2333,36.2199 L38.2333,36.2199 L41.7553,40.4749 Z M14.6333,23.2509 C13.8813,24.0029 12.8773,24.4169 11.8043,24.4169 C10.7323,24.4169 9.7283,24.0029 8.9763,23.2509 C8.2243,22.4989 7.8103,21.4949 7.8103,20.4229 C7.8103,19.3509 8.2243,18.3469 8.9763,17.5949 L9.8813,16.6899 L16.0713,21.8139 L14.6333,23.2509 Z M30.2843,43.3769 L16.0843,38.5189 L12.8713,35.3059 L30.9303,41.4839 L30.2843,43.3769 Z M23.4633,57.7799 L23.3223,57.7809 L2.0293,36.4879 L2.0303,36.3479 L2.7003,35.6759 C2.7203,35.6549 2.7463,35.6449 2.7723,35.6449 C2.7743,35.6449 2.7773,35.6459 2.7793,35.6459 L10.9263,36.1889 L11.5373,36.7999 L11.7853,37.0479 L23.6203,48.8829 L24.1363,57.1079 L23.4633,57.7799 Z M58.1953,22.9079 L36.9033,1.6159 C36.5073,1.2189 35.9803,0.9999 35.4203,0.9999 L35.4183,0.9999 C34.8573,0.9999 34.3303,1.2189 33.9333,1.6139 L33.2583,2.2899 C32.8313,2.7189 32.6093,3.3119 32.6493,3.9129 L33.1883,11.9809 L28.1903,16.9789 L39.1493,18.7149 L41.5543,21.1199 L26.4433,18.7259 L26.3913,18.7779 L17.9993,8.6399 C19.2793,7.4359 19.9363,6.2179 20.0003,4.9349 C20.0743,3.4289 19.3243,1.9099 17.7073,0.2929 C17.3163,-0.0981 16.6833,-0.0981 16.2933,0.2929 C15.9023,0.6839 15.9023,1.3169 16.2933,1.7069 C17.4883,2.9019 18.0473,3.9259 18.0023,4.8359 C17.9673,5.5549 17.5413,6.2989 16.7193,7.0939 L16.0473,6.2809 C14.9183,5.1509 13.4113,4.5289 11.8043,4.5289 C10.1983,4.5289 8.6913,5.1509 7.5623,6.2809 C6.4323,7.4099 5.8103,8.9169 5.8103,10.5239 C5.8103,12.1299 6.4323,13.6369 7.6323,14.8289 L8.3333,15.4099 L7.5623,16.1809 C6.4323,17.3099 5.8103,18.8169 5.8103,20.4229 C5.8103,22.0289 6.4323,23.5359 7.5623,24.6649 C8.6913,25.7949 10.1983,26.4169 11.8043,26.4169 C13.4113,26.4169 14.9183,25.7949 16.0473,24.6649 L17.6183,23.0939 L20.0573,25.1119 L15.2943,29.8749 L34.4373,37.0139 L35.0713,37.5379 L34.4673,39.1579 L13.7403,31.4289 L10.9813,34.1879 L2.9133,33.6499 C2.3173,33.6119 1.7193,33.8309 1.2873,34.2599 L0.6153,34.9339 C0.2173,35.3299 0.0003,35.8589 0.0003,36.4199 C0.0003,36.9809 0.2183,37.5069 0.6153,37.9019 L21.9083,59.1949 C22.3043,59.5919 22.8323,59.8109 23.3923,59.8109 C23.9063,59.8059 24.4803,59.5929 24.8773,59.1959 L25.5523,58.5209 C25.9793,58.0919 26.2023,57.4999 26.1613,56.8989 L25.6223,48.8299 L36.0803,38.3729 L48.6433,48.7709 C48.8293,48.9239 49.0553,48.9999 49.2813,48.9999 C49.5383,48.9999 49.7943,48.9009 49.9883,48.7069 C50.3533,48.3429 50.3813,47.7599 50.0513,47.3619 L39.6533,34.7999 L45.8323,28.6209 L31.9613,25.5069 L30.0033,23.1419 L30.0293,23.0249 L47.5063,26.9469 L47.8303,26.6229 L55.8973,27.1609 C55.9443,27.1639 55.9913,27.1659 56.0393,27.1659 C56.5923,27.1659 57.1253,26.9459 57.5233,26.5509 L58.1943,25.8779 C58.5923,25.4819 58.8103,24.9549 58.8103,24.3949 C58.8103,23.8329 58.5923,23.3049 58.1953,22.9079 L58.1953,22.9079 Z"
           id="path14" />
      </g>
    </g>
  </g>
</svg>
