<?xml version="1.0" encoding="UTF-8" standalone="no"?>
<svg
   xmlns:dc="http://purl.org/dc/elements/1.1/"
   xmlns:cc="http://creativecommons.org/ns#"
   xmlns:rdf="http://www.w3.org/1999/02/22-rdf-syntax-ns#"
   xmlns:svg="http://www.w3.org/2000/svg"
   xmlns="http://www.w3.org/2000/svg"
   xmlns:sodipodi="http://sodipodi.sourceforge.net/DTD/sodipodi-0.dtd"
   xmlns:inkscape="http://www.inkscape.org/namespaces/inkscape"
   version="1.1"
   x="0px"
   y="0px"
   viewBox="0 0 100 125"
   enable-background="new 0 0 100 100"
   xml:space="preserve"
   id="svg2"
   inkscape:version="0.91 r13725"
   sodipodi:docname="laser-cutter.svg"><metadata
     id="metadata24"><rdf:RDF><cc:Work
         rdf:about=""><dc:format>image/svg+xml</dc:format><dc:type
           rdf:resource="http://purl.org/dc/dcmitype/StillImage" /></cc:Work></rdf:RDF></metadata><defs
     id="defs22" /><sodipodi:namedview
     pagecolor="#ffffff"
     bordercolor="#666666"
     borderopacity="1"
     objecttolerance="10"
     gridtolerance="10"
     guidetolerance="10"
     inkscape:pageopacity="0"
     inkscape:pageshadow="2"
     inkscape:window-width="1030"
     inkscape:window-height="907"
     id="namedview20"
     showgrid="false"
     inkscape:zoom="1.888"
     inkscape:cx="-0.84745763"
     inkscape:cy="62.5"
     inkscape:window-x="0"
     inkscape:window-y="0"
     inkscape:window-maximized="0"
     inkscape:current-layer="svg2" /><g
     id="g4"><rect
       x="59"
       y="32"
       width="2"
       height="15"
       id="rect6" /></g><rect
     x="5"
     y="89"
     width="90"
     height="6"
     id="rect8" /><polygon
     points="95,9 69,9 69,5 51,5 51,9 5,9 5,15 51,15 51,19 57,29 63,29 69,19 69,15 95,15 "
     id="polygon10" /><circle
     cx="60"
     cy="66"
     r="1"
     id="circle12" /><path
     d="M61,47v16.184c1.163,0.413,2,1.512,2,2.816c0,1.657-1.343,3-3,3s-3-1.343-3-3c0-1.305,0.837-2.403,2-2.816V47H25v39h50V47  H61z M54.05,60.051c0.391-0.391,1.023-0.391,1.414,0l1.414,1.414c0.391,0.391,0.391,1.023,0,1.414  c-0.195,0.195-0.451,0.293-0.707,0.293s-0.512-0.098-0.707-0.293l-1.414-1.414C53.659,61.074,53.659,60.441,54.05,60.051z   M56.878,70.536l-1.414,1.414c-0.195,0.195-0.451,0.293-0.707,0.293s-0.512-0.098-0.707-0.293c-0.391-0.391-0.391-1.023,0-1.414  l1.414-1.414c0.391-0.391,1.023-0.391,1.414,0S57.269,70.146,56.878,70.536z M65.949,71.95c-0.195,0.195-0.451,0.293-0.707,0.293  s-0.512-0.098-0.707-0.293l-1.414-1.415c-0.391-0.391-0.391-1.024,0-1.414c0.391-0.391,1.023-0.391,1.414,0l1.414,1.415  C66.34,70.927,66.34,71.561,65.949,71.95z M65.949,61.465l-1.414,1.414c-0.195,0.195-0.451,0.293-0.707,0.293  s-0.512-0.098-0.707-0.293c-0.391-0.391-0.391-1.023,0-1.414l1.414-1.414c0.391-0.391,1.023-0.391,1.414,0  S66.34,61.074,65.949,61.465z"
     id="path14" /></svg>