<?xml version="1.0" encoding="UTF-8" standalone="no"?>
<svg
   xmlns:dc="http://purl.org/dc/elements/1.1/"
   xmlns:cc="http://creativecommons.org/ns#"
   xmlns:rdf="http://www.w3.org/1999/02/22-rdf-syntax-ns#"
   xmlns:svg="http://www.w3.org/2000/svg"
   xmlns="http://www.w3.org/2000/svg"
   xmlns:sodipodi="http://sodipodi.sourceforge.net/DTD/sodipodi-0.dtd"
   xmlns:inkscape="http://www.inkscape.org/namespaces/inkscape"
   version="1.1"
   x="0px"
   y="0px"
   viewBox="0 571.25 100 65"
   enable-background="new 0 571.25 100 52"
   xml:space="preserve"
   id="svg2"
   inkscape:version="0.91 r13725"
   sodipodi:docname="metalworking.svg"><metadata
     id="metadata14"><rdf:RDF><cc:Work
         rdf:about=""><dc:format>image/svg+xml</dc:format><dc:type
           rdf:resource="http://purl.org/dc/dcmitype/StillImage" /></cc:Work></rdf:RDF></metadata><defs
     id="defs12" /><sodipodi:namedview
     pagecolor="#ffffff"
     bordercolor="#666666"
     borderopacity="1"
     objecttolerance="10"
     gridtolerance="10"
     guidetolerance="10"
     inkscape:pageopacity="0"
     inkscape:pageshadow="2"
     inkscape:window-width="979"
     inkscape:window-height="837"
     id="namedview10"
     showgrid="false"
     inkscape:zoom="3.1"
     inkscape:cx="50"
     inkscape:cy="32.5"
     inkscape:window-x="0"
     inkscape:window-y="0"
     inkscape:window-maximized="0"
     inkscape:current-layer="svg2" /><path
     d="M85.615,572.219v2.505c-0.718,1.113-1.968,1.853-3.39,1.853c-1.319,0-2.491-0.64-3.226-1.622v-3.704H24.781v0.969H0.094  v1.238c0.93,11.716,11.686,19.36,21.513,20.015c0.221,0.016,0.444,0.025,0.665,0.033c3.686,0.35,6.543,3.495,6.543,7.273  c0,2.02-0.826,3.847-2.157,5.164h-2.266v17.308h54.381v-17.308h-2.266c-2.514-1.188-4.253-3.746-4.253-6.712  c0-4.1,3.324-7.424,7.425-7.424c2.425,0,4.581,1.166,5.937,2.968v0.194h14.291v-22.75H85.615L85.615,572.219z"
     id="path4" /></svg>