<svg xmlns="http://www.w3.org/2000/svg" viewBox="0 0 120 120" ><title>casting.svg</title><rect fill="none" x="0" y="0" width="120" height="120"></rect><path fill="#000" transform="translate(2 2)" d="M36.993,58.738c0,0,0.105,0,0.303,0c-0.102,0-0.202-0.014-0.303-0.025C36.993,58.72,36.993,58.731,36.993,58.738z"></path><path fill="#000" transform="translate(2 2)" d="M39,78.5c0-8.285-0.336-17.618-5-19.75c4.443,0,2.381-10.68,2.964-25.008c-2.626,0.272-6.196,1.453-10.801,7.131   c0.004,0.027-2.354,3.548-2.493,6.453C23.065,60.043,28,60.755,28,76.547C28,101.547,3,91,0,100h100C93,90,39,108.595,39,78.5z    M30.905,43.986c-1.569,2.246-4.031,3.691-3.095-0.197c0.937-3.89,4.315-4.633,4.315-4.633S31.913,42.543,30.905,43.986z"></path><path fill="#000" transform="translate(2 2)" d="M29.488,31.094c-0.002-0.523-0.005-1.046-0.005-1.594C29.483,5,32,5,36.848,5C41,5,42.517,8,42.517,29.5   c0,9.002-0.628,26.535-1.619,29.133c0.064,0.112,0.12,0.233,0.182,0.348C42.014,58.999,42.986,59,44,59   c16.292,0,28.5-13.208,28.5-29.5S60.292,0,44,0C30.5,0,25.5,0,25.5,29.5c0,1.635,0.023,3.164,0.063,4.623   C26.856,32.903,28.16,31.898,29.488,31.094z"></path></svg>
