<svg xmlns="http://www.w3.org/2000/svg" viewBox="0 0 120 120" ><title>cnc-cutting.svg</title><rect fill="none" x="0" y="0" width="120" height="120"></rect><path fill="#000" transform="translate(2 2)" d="M5 89 H 95 V 95 H 5 L 5 89"></path><path fill="#000" transform="translate(2 2)" d="M 54,56 54,38 26.115,38 25,38 25,56 25,86 75,86 75,56 z"></path><path fill="#000" transform="translate(2 2)" d="M 69,9 69,5 51,5 51,9 5,9 5,15 51,15 51,19 57,29 57,39.001 63,29 69,19 69,15 95,15 95,9 z"></path><path fill="#000" transform="translate(2 2)" d="M 63,53 63,42.998 57,53 z"></path><path fill="#000" transform="translate(2 2)" d="M 57,42.89 57,49.112 63,39.111 63,32.888 z"></path></svg>
