<svg xmlns="http://www.w3.org/2000/svg" viewBox="0 0 120 120" ><title>computer-software.svg</title><rect fill="none" x="0" y="0" width="120" height="120"></rect><path fill="#000" transform="translate(2 2)" d="M99.981,2.312C99.884,1.021,98.816,0,97.5,0h-95C1.184,0,0.116,1.021,0.019,2.312L0,66.5C0,67.881,1.119,69,2.5,69h95
	c1.381,0,2.5-1.119,2.5-2.5L99.981,2.312z M96,57H4V4h92V57z"></path><path fill="#000" transform="translate(2 2)" d="M66,81c-4-1-5-4-5-8v-1H50H39v1c0,4-1,7-5,8c-0.97,0.242-1,2,0,2h16h16C67,83,66.97,81.242,66,81z"></path></svg>
