<svg xmlns="http://www.w3.org/2000/svg" viewBox="0 0 504 504"><title>electronics.svg</title><rect fill="none" x="0" y="0" width="504" height="504"></rect><path fill="#000" transform="translate(2 2)" d="m23,27c-1.657,0 -3,-1.344 -3,-3c0,-1.656 1.343,-3 3,-3c1.305,0 2.403,0.838 2.816,2l3.184,0l0,-17l-5,-5l-23,0l0,3l9.414,0l2.3,2.3c0.392,-0.186 0.824,-0.3 1.286,-0.3c1.657,0 3,1.344 3,3c0,1.656 -1.343,3 -3,3c-1.657,0 -3,-1.344 -3,-3c0,-0.463 0.113,-0.895 0.3,-1.286l-1.714,-1.714l-8.586,0l0,4l3.414,0l2.3,2.3c0.392,-0.186 0.824,-0.3 1.286,-0.3c1.657,0 3,1.344 3,3c0,1.656 -1.343,3 -3,3c-1.657,0 -3,-1.344 -3,-3c0,-0.463 0.113,-0.895 0.3,-1.286l-1.714,-1.714l-2.586,0l0,17l4,0l0,-3.184c-1.163,-0.413 -2,-1.512 -2,-2.816c0,-1.656 1.343,-3 3,-3c1.657,0 3,1.344 3,3c0,1.305 -0.837,2.403 -2,2.816l0,3.184l4,0l0,-3.414l11,-11l0,-2.77c-1.163,-0.413 -2,-1.512 -2,-2.816c0,-1.656 1.343,-3 3,-3c1.657,0 3,1.344 3,3c0,1.305 -0.837,2.403 -2,2.816l0,3.598l-11,11l0,2.586l16,0l0,-4l-3.184,0c-0.413,1.162 -1.511,2 -2.816,2z"></path></svg>
