<svg xmlns="http://www.w3.org/2000/svg" viewBox="0 0 120 120" ><title>virtual-reality.svg</title><rect fill="none" x="0" y="0" width="120" height="120"></rect><path fill="#000" transform="translate(2 2)" d="M90,17.1H10c-3.4,0-6.1,2.7-6.1,6.1v48.4c0,3.4,2.7,6.1,6.1,6.1h25.1l8.2-20c3-5.3,10.7-5.3,13.7,0l8.2,20    H90c3.4,0,6.1-2.7,6.1-6.1V23.1C96.1,19.8,93.3,17.1,90,17.1z M29.8,57.4c-5.6,0-10.1-4.5-10.1-10.1s4.5-10.1,10.1-10.1    c5.6,0,10.1,4.5,10.1,10.1S35.4,57.4,29.8,57.4z M72,57.4c-5.6,0-10.1-4.5-10.1-10.1S66.5,37.3,72,37.3c5.6,0,10.1,4.5,10.1,10.1    S77.6,57.4,72,57.4z"></path></svg>
