<svg xmlns="http://www.w3.org/2000/svg" viewBox="0 0 120 120"><title>woodworking.svg</title><rect fill="none" x="0" y="0" width="120" height="120"></rect><path fill="#000" transform="translate(2 2)" d="m48.49999,20.80314l4.29921,0.66142l2.72835,-2.64567l1.98425,-0.49606l-0.41338,1.73622l-0.41338,0.08268l0.41338,1.98425l3.88582,1.98425l3.38976,-1.65355l2.06693,0.16535l-0.99212,1.40551l-0.33071,0l-0.24803,2.06693l3.05905,3.05905l3.72047,-0.49606l1.90158,0.74409l-1.32284,1.0748l-0.41338,-0.08268l-0.82677,1.8189l1.98425,3.88582l3.72047,0.66142l1.57087,1.32284l-1.65355,0.66142l-0.33071,-0.33071l-1.32284,1.57087l0.66142,4.29921l3.30709,1.73622l1.0748,1.73622l-1.73622,0.08268l-0.16535,-0.33071l-1.8189,0.99212l-0.66142,4.29921l2.64567,2.72835l0.49606,1.98425l-1.73622,-0.41338l-0.08268,-0.41338l-1.98425,0.41338l-1.98425,3.88582l1.65355,3.38976l-0.16535,2.06693l-1.48819,-0.99212l0.08268,-0.33071l-2.06693,-0.24803l-3.05905,3.05905l0.49606,3.72047l-0.74409,1.90158l-1.15748,-1.32284l0.16535,-0.41338l-1.8189,-0.82677l-3.88582,1.98425l-0.66142,3.72047l-1.32284,1.57087l-0.66142,-1.65355l0.24803,-0.33071l-1.48819,-1.32284l-4.29921,0.66142l-1.73622,3.30709l-1.73622,1.0748l-0.16535,-1.73622l0.41338,-0.16535l-1.0748,-1.8189l-4.21654,-0.66142l-2.81102,2.64567l-1.90158,0.49606l0.41338,-1.73622l0.41338,-0.08268l-0.41338,-1.98425l-3.88582,-1.98425l-3.47244,1.65355l-1.98425,-0.16535l0.90945,-1.48819l0.41338,0.08268l0.24803,-2.06693l-3.05905,-3.05905l-3.80315,0.49606l-1.8189,-0.74409l1.32284,-1.15748l0.41338,0.16535l0.82677,-1.8189l-1.98425,-3.88582l-3.72047,-0.66142l-1.57087,-1.32284l1.65355,-0.66142l0.24803,0.24803l1.40551,-1.48819l-0.66142,-4.29921l-3.38976,-1.73622l-1.0748,-1.73622l1.73622,-0.16535l0.24803,0.41338l1.8189,-1.0748l0.66142,-4.21654l-2.64567,-2.81102l-0.49606,-1.90158l1.73622,0.41338l0.08268,0.41338l1.98425,-0.41338l1.98425,-3.88582l-1.65355,-3.47244l0.16535,-1.98425l1.40551,0.90945l0,0.41338l2.06693,0.24803l3.05905,-3.05905l-0.49606,-3.80315l0.74409,-1.8189l1.0748,1.32284l-0.08268,0.41338l1.8189,0.82677l3.88582,-1.98425l0.66142,-3.72047l1.32284,-1.57087l0.66142,1.65355l-0.33071,0.24803l1.57087,1.40551l4.29921,-0.66142l1.73622,-3.38976l1.73622,-1.0748l0.08268,1.73622l-0.33071,0.24803l0.99212,1.8189zm0,22.73622c2.81102,0 5.04331,2.23228 5.04331,4.96063c0,2.81102 -2.23228,5.04331 -5.04331,5.04331c-2.72835,0 -4.96063,-2.23228 -4.96063,-5.04331c0,-2.72835 2.23228,-4.96063 4.96063,-4.96063z"></path></svg>
