<svg width="96" height="69" xmlns="http://www.w3.org/2000/svg">
 <style type="text/css">.st0{fill-rule:evenodd;clip-rule:evenodd;}</style>

 <g>
  <title>background</title>
  <rect fill="none" id="canvas_background" height="72" width="99" y="-1" x="-1"/>
 </g>
 <g>
  <title>Layer 1</title>
  <g id="svg_1">
   <g id="svg_2">
    <path id="svg_3" d="m91.76673,13.63223l-29.5,0c-1.7,0 -3.1,-1.4 -3.1,-3.1l0,0c0,-1.7 1.4,-3.1 3.1,-3.1l29.5,0c1.7,0 3.1,1.4 3.1,3.1l0,0c0,1.7 -1.4,3.1 -3.1,3.1z"/>
    <path id="svg_4" d="m32.86673,13.63223l-29.6,0c-1.7,0 -3.1,-1.4 -3.1,-3.1l0,0c0,-1.7 1.4,-3.1 3.1,-3.1l29.5,0c1.7,0 3.1,1.4 3.1,3.1l0,0c0,1.7 -1.4,3.1 -3,3.1z"/>
   </g>
   <path id="svg_5" d="m22.46673,4.73223c0,-2.4 -2,-4.4 -4.4,-4.4s-4.4,2 -4.4,4.4c0,0.1 0,0.2 0,0.3l8.8,0c0,-0.1 0,-0.2 0,-0.3z"/>
   <path id="svg_6" d="m72.66673,19.13223c0,0.9 0,1.8 0.1,2.6c-12.1,-0.8 -11.3,-5.9 -25.1,-5.9c0,0 -0.1,0 -0.1,0c0,0 -0.1,0 -0.1,0c-13.9,0 -13.1,5.1 -25.1,5.9c0.1,-0.8 0.1,-1.7 0.1,-2.6c0,-0.8 0,-1.8 0,-2.8l-8.8,0c0,1 0,2 0,2.8c0,7.5 2,11.5 4.4,11.5c1.2,0 2.3,-1 3.1,-2.9l9.3,0c1.4,0 8.5,4.1 9,12.5c0.3,3.4 1.5,3.4 3.4,3.4l9.4,0c1.9,0 3,0 3.4,-3.4c0.5,-8.4 7.6,-12.5 9,-12.5s9.3,0 9.3,0c0.8,1.9 1.9,2.9 3.1,2.9c2.4,0 4.4,-4 4.4,-11.5c0,-0.8 0,-1.8 0,-2.8l-8.8,0c0,1 0,2 0,2.8z"/>
   <path id="svg_7" d="m77.06673,0.33223c-2.4,0 -4.4,2 -4.4,4.4c0,0.1 0,0.2 0,0.3l8.8,0c0,-0.1 0,-0.2 0,-0.3c0,-2.4 -2,-4.4 -4.4,-4.4z"/>
   <g id="svg_8">
    <path id="svg_9" d="m75.96673,68.53223c-0.1,0 -0.3,0 -0.4,0c-1.6,-0.2 -2.8,-1.8 -2.5,-3.4c3.1,-21.9 -10.4,-26.9 -10.6,-27c-1.2,-1.1 -1.3,-3 -0.1,-4.2c1.1,-1.2 3,-1.3 4.2,-0.1c0.7,0.6 16,7.2 12.4,32.2c-0.3,1.4 -1.6,2.5 -3,2.5z"/>
   </g>
   <g id="svg_10">
    <path id="svg_11" d="m19.96673,68.53223c0.1,0 0.3,0 0.4,0c1.6,-0.2 2.8,-1.8 2.5,-3.4c-3.1,-21.9 10.4,-26.9 10.6,-27c1.2,-1.1 1.3,-3 0.1,-4.2c-1.1,-1.2 -3,-1.3 -4.2,-0.1c-0.7,0.6 -16,7.2 -12.4,32.2c0.2,1.4 1.5,2.5 3,2.5z"/>
   </g>
   <path id="svg_12" d="m47.56673,47.03223c-3.6,0 -6.6,3 -6.6,6.6c0,3.6 3,6.6 6.6,6.6c3.6,0 6.6,-3 6.6,-6.6c0,-3.7 -3,-6.6 -6.6,-6.6zm0,9.3c-1.5,0 -2.7,-1.2 -2.7,-2.7s1.2,-2.7 2.7,-2.7s2.7,1.2 2.7,2.7s-1.2,2.7 -2.7,2.7z"/>
  </g>
 </g>
</svg>
