<svg xmlns="http://www.w3.org/2000/svg" xmlns:xlink="http://www.w3.org/1999/xlink" version="1.1" x="0px" y="0px" viewBox="0 0 100 100" style="enable-background:new 0 0 100 100;" xml:space="preserve"><style type="text/css">
	.st0{fill-rule:evenodd;clip-rule:evenodd;}
</style><g><g><path d="M94.2,29.2H64.7c-1.7,0-3.1-1.4-3.1-3.1v0c0-1.7,1.4-3.1,3.1-3.1h29.5c1.7,0,3.1,1.4,3.1,3.1v0    C97.3,27.8,95.9,29.2,94.2,29.2z"/><path d="M35.3,29.2H5.7c-1.7,0-3.1-1.4-3.1-3.1v0c0-1.7,1.4-3.1,3.1-3.1h29.5c1.7,0,3.1,1.4,3.1,3.1v0    C38.3,27.8,36.9,29.2,35.3,29.2z"/></g><path d="M24.9,20.3c0-2.4-2-4.4-4.4-4.4s-4.4,2-4.4,4.4c0,0.1,0,0.2,0,0.3h8.8C24.9,20.5,24.9,20.4,24.9,20.3z"/><path d="M75.1,34.7c0,0.9,0,1.8,0.1,2.6c-12.1-0.8-11.3-5.9-25.1-5.9c0,0-0.1,0-0.1,0c0,0-0.1,0-0.1,0c-13.9,0-13.1,5.1-25.1,5.9   c0.1-0.8,0.1-1.7,0.1-2.6c0-0.8,0-1.8,0-2.8h-8.8c0,1,0,2,0,2.8c0,7.5,2,11.5,4.4,11.5c1.2,0,2.3-1,3.1-2.9h9.3   c1.4,0,8.5,4.1,9,12.5c0.3,3.4,1.5,3.4,3.4,3.4h9.4c1.9,0,3,0,3.4-3.4c0.5-8.4,7.6-12.5,9-12.5s9.3,0,9.3,0   c0.8,1.9,1.9,2.9,3.1,2.9c2.4,0,4.4-4,4.4-11.5c0-0.8,0-1.8,0-2.8h-8.8C75.1,32.9,75.1,33.9,75.1,34.7z"/><path d="M79.5,15.9c-2.4,0-4.4,2-4.4,4.4c0,0.1,0,0.2,0,0.3h8.8c0-0.1,0-0.2,0-0.3C83.9,17.9,81.9,15.9,79.5,15.9z"/><g><path d="M78.4,84.1c-0.1,0-0.3,0-0.4,0c-1.6-0.2-2.8-1.8-2.5-3.4c3.1-21.9-10.4-26.9-10.6-27c-1.2-1.1-1.3-3-0.1-4.2    c1.1-1.2,3-1.3,4.2-0.1c0.7,0.6,16,7.2,12.4,32.2C81.1,83,79.8,84.1,78.4,84.1z"/></g><g><path d="M22.4,84.1c0.1,0,0.3,0,0.4,0c1.6-0.2,2.8-1.8,2.5-3.4c-3.1-21.9,10.4-26.9,10.6-27c1.2-1.1,1.3-3,0.1-4.2    c-1.1-1.2-3-1.3-4.2-0.1c-0.7,0.6-16,7.2-12.4,32.2C19.6,83,20.9,84.1,22.4,84.1z"/></g><path d="M50,62.6c-3.6,0-6.6,3-6.6,6.6c0,3.6,3,6.6,6.6,6.6c3.6,0,6.6-3,6.6-6.6C56.6,65.5,53.6,62.6,50,62.6z M50,71.9   c-1.5,0-2.7-1.2-2.7-2.7s1.2-2.7,2.7-2.7s2.7,1.2,2.7,2.7S51.5,71.9,50,71.9z"/></g></svg>
