<svg width="82" height="90" xmlns="http://www.w3.org/2000/svg">

 <g>
  <title>background</title>
  <rect fill="none" id="canvas_background" height="93" width="84" y="-1" x="-1"/>
 </g>
 <g>
  <title>Layer 1</title>
  <g id="svg_1">
   <path id="svg_2" d="m55.788,30.87l-29.559,0c-8.153,0 -14.785,6.633 -14.785,14.785l0,29.559c-0.001,8.153 6.632,14.786 14.785,14.786l29.559,0c8.153,0 14.785,-6.633 14.785,-14.785l0,-29.559c0,-8.153 -6.633,-14.786 -14.785,-14.786zm11.5,44.345c0,6.341 -5.159,11.5 -11.5,11.5l-29.559,0c-6.341,0 -11.5,-5.159 -11.5,-11.5l0,-29.559c0,-6.341 5.159,-11.5 11.5,-11.5l29.559,0c6.341,0 11.5,5.159 11.5,11.5l0,29.559z"/>
   <path id="svg_3" d="m51.824,65.005l-21.429,0c-2.227,0 -4.039,1.812 -4.039,4.039l0,2.813c0,2.227 1.812,4.039 4.039,4.039l21.428,0c2.227,0 4.039,-1.812 4.039,-4.039l0,-2.813c0,-2.227 -1.812,-4.039 -4.038,-4.039zm-9.72,2.191l3.88,0l0,6.51l-3.88,0l0,-6.51zm-2.191,6.509l-3.677,0l0,-6.51l3.677,0l0,6.51zm-11.366,-1.848l0,-2.813c0,-1.019 0.829,-1.848 1.848,-1.848l3.65,0l0,6.51l-3.65,0c-1.019,-0.001 -1.848,-0.829 -1.848,-1.849zm25.125,0c0,1.019 -0.829,1.848 -1.848,1.848l-3.65,0l0,-6.51l3.65,0c1.019,0 1.848,0.829 1.848,1.848l0,2.814z"/>
   <path id="svg_4" d="m9.139,51.376c-4.995,0 -9.059,4.064 -9.059,9.059l0,3.512c0,4.986 4.064,9.043 9.059,9.043l0,-1.095l0,0l0,-19.424l0,0l0,-1.095z"/>
   <path id="svg_5" d="m72.877,51.376l0,2.19c0,0 0,0 0,0l0,17.234c0,0 0,0 0,0l0,2.19c4.986,0 9.043,-4.057 9.043,-9.043l0,-3.512c0,-4.995 -4.057,-9.059 -9.043,-9.059z"/>
   <path id="svg_6" d="m49.004,28.696l1.077,0l0,-0.008l1.095,-0.008c0,-5.178 -3.933,-9.452 -8.968,-10l0,-8.07c2.387,-0.548 4.178,-2.68 4.178,-5.231c0,-2.966 -2.413,-5.379 -5.378,-5.379c-2.965,0 -5.378,2.413 -5.378,5.378c0,2.626 1.895,4.811 4.388,5.278l0,8.024c-5.035,0.548 -8.968,4.823 -8.968,10.016l1.095,-0.008l0,0.008l16.84,0l0,0l0.019,0z"/>
   <path id="svg_7" d="m36.934,52.471c0,-4.565 -3.713,-8.278 -8.278,-8.278c-4.564,0 -8.278,3.713 -8.278,8.278s3.713,8.278 8.278,8.278c4.564,0.001 8.278,-3.713 8.278,-8.278zm-14.366,0c0,-3.357 2.731,-6.088 6.087,-6.088c3.357,0 6.088,2.731 6.088,6.088c0,3.357 -2.731,6.088 -6.088,6.088c-3.356,0 -6.087,-2.731 -6.087,-6.088z"/>
   <path id="svg_8" d="m31.893,52.471c0,-1.785 -1.453,-3.237 -3.237,-3.237c-1.785,0 -3.237,1.453 -3.237,3.237c0,1.785 1.452,3.237 3.237,3.237c1.785,0.001 3.237,-1.452 3.237,-3.237z"/>
   <path id="svg_9" d="m53.361,44.193c-4.565,0 -8.278,3.713 -8.278,8.278s3.713,8.278 8.278,8.278c4.564,0 8.278,-3.713 8.278,-8.278s-3.714,-8.278 -8.278,-8.278zm0,14.366c-3.357,0 -6.088,-2.731 -6.088,-6.088c0,-3.357 2.731,-6.088 6.088,-6.088c3.357,0 6.087,2.731 6.087,6.088c0,3.357 -2.73,6.088 -6.087,6.088z"/>
   <path id="svg_10" d="m53.361,49.234c-1.785,0 -3.237,1.453 -3.237,3.237c0,1.785 1.452,3.237 3.237,3.237c1.785,0 3.237,-1.452 3.237,-3.237c0,-1.785 -1.452,-3.237 -3.237,-3.237z"/>
  </g>
 </g>
</svg>
