<?xml version="1.0" encoding="utf-8"?>
<?xml-stylesheet type="text/css" href="/css/makergrounds.css" ?>
<!-- Generator: Adobe Illustrator 20.1.0, SVG Export Plug-In . SVG Version: 6.00 Build 0)  -->
<svg version="1.1" xmlns="http://www.w3.org/2000/svg" xmlns:xlink="http://www.w3.org/1999/xlink" x="0px" y="0px"
	 viewBox="0 0 1225.5 798" style="enable-background:new 0 0 1225.5 798;" xml:space="preserve">


<g id="clickable">
	<a xlink:href="#1" class="map-button"><circle cx="411.3" cy="187.6" r="41.7"/></a>
	<a xlink:href="#2" class="map-button"><circle cx="505.4" cy="184.5" r="41.7"/></a>
	<a xlink:href="#3" class="map-button"><circle cx="592.1" cy="207.9" r="41.7"/></a>
	<a xlink:href="#4" class="map-button"><circle cx="662.9" cy="260.7" r="41.7"/></a>
	<a xlink:href="#5" class="map-button"><circle cx="711.5" cy="340.9" r="41.7"/></a>
	<a xlink:href="#6" class="map-button"><circle cx="714.7" cy="433.9" r="41.7"/></a>
	<a xlink:href="#7" class="map-button"><circle cx="682.1" cy="523.2" r="41.7"/></a>
	<a xlink:href="#8" class="map-button"><circle cx="608.1" cy="579.2" r="41.7"/></a>
	<a xlink:href="#9" class="map-button"><circle cx="522.5" cy="606.7" r="41.7"/></a>
	<a xlink:href="#10" class="map-button"><circle cx="430.7" cy="612" r="41.7"/></a>
	<a xlink:href="#11" class="map-button"><circle cx="344" cy="585.5" r="41.7"/></a>
	<a xlink:href="#12" class="map-button"><circle cx="272.1" cy="535.8" r="41.7"/></a>
	<a xlink:href="#13" class="map-button"><circle cx="228.8" cy="456.6" r="41.7"/></a>
	<a xlink:href="../mechatronics.html" target="_top" class="map-button"><circle cx="216.1" cy="364.6" r="41.7"/></a>
	<a xlink:href="#15" class="map-button"><circle cx="247.8" cy="277.9" r="41.7"/></a>
	<a xlink:href="#16" class="map-button"><circle cx="323.9" cy="223" r="41.7"/></a>
	<a xlink:href="#17" class="map-button"><circle cx="169.8" cy="189.7" r="41.7"/></a>
	<a xlink:href="#18" class="map-button"><circle cx="102.3" cy="297.1" r="41.7"/></a>
	<a xlink:href="#19" class="map-button"><circle cx="100.2" cy="418.3" r="41.7"/></a>
	<a xlink:href="#20" class="map-button"><circle cx="121.6" cy="532.7" r="41.7"/></a>
	<a xlink:href="#21" class="map-button"><circle cx="165.4" cy="632.2" r="41.7"/></a>
	<a xlink:href="#22" class="map-button"><circle cx="250.6" cy="698" r="41.7"/></a>
	<a xlink:href="#23" class="map-button"><circle cx="362" cy="726.4" r="41.7"/></a>
	<a xlink:href="#24" class="map-button"><circle cx="464.8" cy="737.8" r="41.7"/></a>
	<a xlink:href="#25" class="map-button"><circle cx="578" cy="729.4" r="41.7"/></a>
	<a xlink:href="#26" class="map-button"><circle cx="685.5" cy="723" r="41.7"/></a>
	<a xlink:href="#27" class="map-button"><circle cx="781.2" cy="677.6" r="41.7"/></a>
	<a xlink:href="#28" class="map-button"><circle cx="827.1" cy="582.7" r="41.7"/></a>
	<a xlink:href="#29" class="map-button"><circle cx="829.4" cy="472.6" r="41.7"/></a>
	<a xlink:href="https://publicsearch.people.virginia.edu/person/jcb2h" target="_top" class="map-button"><circle cx="815.6" cy="360.2" r="41.7"/></a>
	<a xlink:href="#32" class="map-button"><circle cx="912.9" cy="292.5" r="41.7"/></a>
	<a xlink:href="#33" class="map-button"><circle cx="911.6" cy="398.8" r="41.7"/></a>
	<a xlink:href="#34" class="map-button"><circle cx="793.4" cy="242.2" r="41.7"/></a>
	<a xlink:href="#35" class="map-button"><circle cx="742.9" cy="158.7" r="41.7"/></a>
	<a xlink:href="#36" class="map-button"><circle cx="659.3" cy="101.5" r="41.7"/></a>
	<a xlink:href="#37" class="map-button"><circle cx="558.4" cy="73.9" r="41.7"/></a>
	<a xlink:href="#38" class="map-button"><circle cx="442.1" cy="77.2" r="41.7"/></a>
	<a xlink:href="#39" class="map-button"><circle cx="302.3" cy="111.5" r="41.7"/></a>
	<a xlink:href="#40" class="map-button"><circle cx="1047" cy="164" r="41.7"/></a>
	<a xlink:href="#41" class="map-button"><circle cx="1162.2" cy="165" r="41.7"/></a>
	<a xlink:href="#42" class="map-button"><circle cx="1158.4" cy="276.9" r="41.7"/></a>
	<a xlink:href="#43" class="map-button"><circle cx="1045.9" cy="276.1" r="41.7"/></a>
	<a xlink:href="#44" class="map-button"><circle cx="1047.2" cy="383.5" r="41.7"/></a>
	<a xlink:href="#45" class="map-button"><circle cx="1158.8" cy="386.9" r="41.7"/></a>
	<a xlink:href="#46" class="map-button"><circle cx="1156.7" cy="495.5" r="41.7"/></a>
	<a xlink:href="#47" class="map-button"><circle cx="1045" cy="494.5" r="41.7"/></a>
	<a xlink:href="#48" class="map-button"><circle cx="1045" cy="602.4" r="41.7"/></a>
	<a xlink:href="#49" class="map-button"><circle cx="1157.7" cy="604.5" r="41.7"/></a>
	<a xlink:href="#50" class="map-button"><circle cx="1163" cy="710.5" r="41.7"/></a>
	<a xlink:href="#51" class="map-button"><circle cx="1044.8" cy="710" r="41.7"/></a>
</g>
</svg>
